<svg xmlns="http://www.w3.org/2000/svg" xmlns:xlink="http://www.w3.org/1999/xlink" width="80.908" height="76.381" viewBox="0 0 80.908 76.381">
  <defs>
    <clipPath id="clip-path">
      <path id="B" d="M37.6-19.452c-12.748,0-23.119,9.373-23.119,25.447S24.852,31.442,37.6,31.442h3.659c12.748,0,23.119-9.373,23.119-25.447S54.007-19.452,41.259-19.452H37.6m-6.653-6.32H47.912a31.767,31.767,0,1,1,0,63.535H30.947A31.767,31.767,0,0,1-.82,5.995C-4.147-70.126,13.4-25.773,30.947-25.773Z" transform="translate(760.775 297.238)" fill="#424750"/>
    </clipPath>
  </defs>
  <g id="B-2" data-name="B" transform="translate(-759.546 -258.619)">
    <g id="B-3" data-name="B" clip-path="url(#clip-path)">
      <path id="Black" d="M37.6-19.452c-12.748,0-23.119,9.373-23.119,25.447S24.852,31.442,37.6,31.442h3.659c12.748,0,23.119-9.373,23.119-25.447S54.007-19.452,41.259-19.452H37.6m-6.653-6.32H47.912a31.767,31.767,0,1,1,0,63.535H30.947A31.767,31.767,0,0,1-.82,5.995C-4.147-70.126,13.4-25.773,30.947-25.773Z" transform="translate(760.775 297.238)" fill="#424750"/>
      <path id="Red" d="M791.07,308.006,837.5,331.981l-26.033,10.808-55.145-13.548Z" fill="#ea2258"/>
      <path id="Pink" d="M778.956,260.749l-26.009,40.573,40.929,16.5L806.134,264.6Z" fill="#ce25d5"/>
      <path id="Purple" d="M801.526,254.432l-50.865,53.574V250.517Z" fill="#5e26f7"/>
      <path id="Green" d="M746.662,290.087l53.157,28.092-49.155,20.313Z" fill="#43e243"/>
      <path id="Orange" d="M846.284,281.375l-41.6,41.281,36.612,16.565Z" fill="#fab415"/>
      <path id="Green-2" data-name="Green" d="M804.681,258.619l-6.222,25.272,26.608,22.184,19.084-20.183Z" fill="#31c369"/>
    </g>
  </g>
</svg>
